<?xml version="1.0" encoding="UTF-8"?>
<svg id="Layer_1" xmlns="http://www.w3.org/2000/svg" version="1.1" viewBox="0 0 1200 611.3">
  <!-- Generator: Adobe Illustrator 29.1.0, SVG Export Plug-In . SVG Version: 2.1.0 Build 142)  -->
  <defs>
    <style>
      .st0 {
        fill: #84c225;
      }

      .st1 {
        fill: #ababab;
      }

      .st2 {
        fill: #aaa;
      }

      .st3 {
        fill: #da251d;
      }

      .st4 {
        fill: #f2ae99;
      }

      .st5 {
        fill: #666;
      }

      .st6 {
        fill: #e9826a;
      }

      .st7 {
        fill: #acacac;
      }

      .st8 {
        fill: #007cc3;
      }

      .st9 {
        fill: #a9a9a9;
      }

      .st10 {
        fill: #e1533c;
      }
    </style>
  </defs>
  <g>
    <path class="st9" d="M594.6,587.3l5.5,13.7,4.9-13.7h3.1s4.7,13.7,4.7,13.7l5.4-13.4,2.3-.3-6.2,15.7h-2.8c0,.1-4.9-12.9-4.9-12.9-.6-.1-.4.2-.6.6-1.7,4.1-3,8.3-4.6,12.4h-3.1s-5.9-15.4-5.9-15.4c-.3-.8,1.7-.4,2.1-.4Z"/>
    <path class="st9" d="M971.7,587.2v15.9h-1.9v-13.4c-.7-.2-.5.1-.7.4-3.1,3.9-5.7,8.5-8.6,12.5-.6.7-1.6.7-2.2,0l-8.6-12.5-.7-.4v13.4h-1.9v-15.9c1,0,2.3-.3,3.1.4l9.2,12.9,9-13.1c.7-.7,2.3-.2,3.3-.3Z"/>
    <path class="st9" d="M511.9,591.6h-2.2c.4-1.9-.6-2.5-2.4-2.8s-8.4-.2-9.9.6-1.1,3.7.4,4.2c3.4,1.1,8.2,0,11.7.5s3,3.7,2.6,6-2.2,2.9-4.1,3c-2.4.2-7.3.2-9.6,0s-3.8-2.2-3.9-5.3h2.2c-.3,1.9.4,3.2,2.3,3.4s7.8.2,9.3,0,2.8-3.5,1.5-4.8c-2.1-2-11.3.5-14-1.6s-1.6-5.7.5-7,12.2-1.5,14.3,0,1.5,2.3,1.4,3.7Z"/>
    <polygon class="st2" points="638.9 587.2 638.9 589.1 625.5 589.1 625.5 593.8 638.3 593.8 638.3 595.7 625.5 595.7 625.5 601.3 638.9 601.3 638.9 603.1 623.3 603.1 623.3 587.2 638.9 587.2"/>
    <polygon class="st2" points="692.7 587.2 692.7 589.1 679.4 589.1 679.4 593.8 692.1 593.8 692.1 595.7 679.4 595.7 679.4 601.3 692.7 601.3 692.7 603.1 677.2 603.1 677.2 587.2 692.7 587.2"/>
    <polygon class="st2" points="931.8 587.2 931.8 589.1 918.5 589.1 918.5 593.8 931.2 593.8 931.2 595.7 918.5 595.7 918.5 601.3 931.8 601.3 931.8 603.1 916.3 603.1 916.3 587.2 931.8 587.2"/>
    <path class="st9" d="M1158.8,600.9v-13.7h2.2v15.4c-.7.8-2.2.5-3.1.3l-13.7-13.4c-.2-.3-.6.3-.6.3v13.2h-1.9v-15.9c1.2,0,2.6-.3,3.7.5l13.4,13.2Z"/>
    <polygon class="st9" points="564.8 600.9 564.8 587.2 567 587.2 567 603.1 564.3 603.1 549.5 589.1 549.5 603.1 547.7 603.1 547.7 587.2 550.6 587.2 564.8 600.9"/>
    <polygon class="st2" points="1093.7 587.2 1093.7 589.1 1080 589.1 1080 593.8 1093.1 593.8 1093.1 595.7 1080 595.7 1080 601.3 1093.7 601.3 1093.7 603.1 1078.2 603.1 1078.2 587.2 1093.7 587.2"/>
    <polygon class="st2" points="891.4 587.2 891.4 589.1 878 589.1 878 593.8 891.1 593.8 891.1 595.7 878 595.7 878 601.3 891.4 601.3 891.4 603.1 876.1 603.1 876.1 587.2 891.4 587.2"/>
    <path class="st9" d="M1015.6,592.5c-.1-1.2-.1-2.6-1.3-3.2-1.7-.8-7.6-.7-9.7-.6s-2.5.4-3,1.7-.4,6.8-.2,8.2.9,2.5,2.6,2.7c3,.3,6.8-.2,9.9,0,.6-.1,1.3-.7,1.5-1.3s.1-2.4.4-2.4c.5,0,1.2,0,1.7,0,.2,3.3-.3,5.3-3.9,5.6s-7.7.2-10.3,0-3.9-1.6-4.2-4.2-.2-5.9,0-7.8c.3-3.2,2.6-4,5.4-4.2s9.5-.2,11.2.9,3,5.4-.2,4.7Z"/>
    <path class="st9" d="M841.3,592.5c-2.8.5-1.3-1.6-2.3-2.8s-1.4-.8-1.9-.9c-1.8-.3-6.1-.2-8,0-3.2.3-3.7,1.5-3.9,4.5-.1,1.6,0,6.4,1.1,7.3s1.3.6,1.9.6c2,.2,7.7.3,9.6,0s2.3-1.8,2.1-3.7h1.9c.2,3.3-.3,5.3-3.9,5.6s-8,.3-10.6,0c-2.4-.3-3.7-1.4-3.9-3.9s-.2-6.5,0-8.4,1-2.7,2.1-3.2c2-1,8.5-.9,10.8-.7,3.7.3,5.7,1.5,5.1,5.6Z"/>
    <path class="st9" d="M656.3,587.2v6.8h13.5s.5-.4.5-.5v-6.4h2.2v15.4c-.5.7-1.4.4-2.2.5v-7s-.4-.5-.5-.5h-13.5v7.5h-2.2v-15.9h2.2Z"/>
    <path class="st9" d="M412.9,587.2v12c0,0,.8,1.4.9,1.5.5.4,1.1.4,1.7.5,2.2.2,7.3.3,9.3,0,.8-.1,2-1.3,2-2v-12h2.2v11.4c0,.1-.4,1.8-.4,2-.5,1.6-2.5,2.4-4.1,2.5-2.3.2-8.4.3-10.5-.2s-2.1-.9-2.6-1.7-.8-2-.8-2.3v-11.7h2.2Z"/>
    <path class="st9" d="M978.5,587.2v12c0,.9,1.1,1.9,2,2,2,.3,7.2.2,9.3,0s2.6-1.2,2.6-2v-12h2.2c-.2,3.3.2,6.8,0,10.1-.2,3-.7,5.4-4.2,5.8-2.2.2-8.4.3-10.5,0-1.2-.2-2.5-1.1-3.1-2.2s-.6-1.5-.6-1.6v-12h2.2Z"/>
    <path class="st9" d="M1024,587.2v6.8h14v-6.8h1.9v15.9h-1.9v-7.5h-14v7c-.5.7-1.4.4-2.2.5v-15.9h2.2Z"/>
    <path class="st9" d="M847.8,587.2v6.4s.4.5.5.5h13.4s.5-.4.5-.5v-6.4h1.9v15.9h-1.9v-7c-.3-.5-.6-.4-1.1-.5-2.5-.3-9.7-.3-12.2,0s-.8,0-1.1.5v7h-1.9v-15.9h1.9Z"/>
    <path class="st9" d="M911,587.3c.3-.2,2-.1,2.4,0l-8.4,15.2c-.6.9-2.1.5-3,.5l-8.4-15.8,2.3.3,7.5,13.4,7.7-13.6Z"/>
    <path class="st9" d="M484.8,587.2l-8.9,15.9h-2.3c0,0-8.5-15.7-8.5-15.7,0-.3,2-.3,2.3.1l7.5,13.4,7.5-13.4,2.3-.3Z"/>
    <path class="st9" d="M1106.5,603.1c-.6,0-1.9.3-2.1-.5-.5-1.5.5-4.8-.2-6.3s-1-1.3-1.2-1.6c-2.2-2.6-5.2-4.8-7.3-7.5l3.1.2,6.7,7c.7.1,2-2,2.4-2.5.7-.7,4.1-4.3,4.5-4.5.9-.4,2.2,0,3.1-.2l-9,9.2v6.7Z"/>
    <path class="st9" d="M373.6,596.4l-8.7-9c.8-.3,2.2-.3,3,.1l6.8,6.9,7-7,2.8-.2-8.7,9.2v6.7h-2.2v-6.7Z"/>
    <path class="st9" d="M762.8,587.2v1.9h-7.8v14c-.8,0-1.6,0-2.2,0v-14h-7.5v-1.9h17.4Z"/>
    <path class="st7" d="M698.7,587.2v14h12.1v1.9h-13.9s-.5-.4-.5-.5v-15.4h2.2Z"/>
    <path class="st1" d="M518.7,587.2v15.4c-.5.7-1.4.4-2.2.5v-15.9h2.2Z"/>
    <rect class="st2" x="869" y="587.2" width="1.9" height="15.9"/>
    <rect class="st7" x="487.9" y="587.2" width="1.9" height="15.9"/>
    <rect class="st2" x="1191.5" y="587.2" width="1.9" height="11.2"/>
    <path class="st7" d="M576.3,600c0,2.5.8,5.9-2.8,5.6v-1.5s.9,0,.9,0c.4-.9-.6-.9-.6-1.1-.2-.8.1-2,0-2.9h2.5Z"/>
    <rect class="st1" x="1191.2" y="600" width="2.5" height="3.1"/>
    <path class="st9" d="M1071.6,594.7c.5-.8,1.4-.9,1.7-1.8.7-2.4-.1-5.2-2.8-5.6h-14.2v15.9h12.9c.2,0,2.1-.3,2.4-.4,3.3-.7,3.5-7.9,0-8ZM1058.2,589.1h11.7c2.6.4,1.5,4.7.3,4.7h-12v-4.7ZM1071.8,600.3c-.1.3-1.3.9-1.6.9h-12v-5.6h11.7c0,0,1.6.6,1.6.7.5.5.5,3.4.2,4Z"/>
    <path class="st9" d="M784.6,588.6c-.4-.5-1.3-1.1-1.9-1.2-2.5-.8-8.9-.7-11.6-.4-2.4.2-4,.5-4.8,3-.6,1.9-.7,8.8,0,10.7.8,1.8,2.5,2.4,4.3,2.5,2.5.2,10,.3,12.1-.4.5-.2,1.3-.5,1.6-.9,1.9-1.8,1.8-11.2.2-13.2ZM783.4,598.9c-.1,1.2-1.5,2.2-2.7,2.3-2.3.2-7.7.2-10,0-1.2-.1-2.4-1.1-2.6-2.4-.2-1.4-.2-6,0-7.4.2-1.5,1.3-2.3,2.7-2.6,1.9-.3,7.3-.3,9.3,0,.9,0,2.7.7,3.1,1.6.3.6.3,7.5.2,8.6Z"/>
    <path class="st2" d="M1182.8,588c-.2-.1-2.2-.8-2.3-.8h-14.8v15.9h14.2c.1,0,1.8-.4,2-.5,2.2-.7,3-2.9,3.1-5,.2-2.7.4-8.2-2.2-9.6ZM1182.1,600.1c-.2.3-1.5,1.1-1.7,1.1h-12.6v-12.1h12.6c.7,0,1.7,1,2,1.7.6,1.6.6,7.9-.3,9.3Z"/>
    <path class="st9" d="M1136.9,590c-.3-1.1-1.5-2.3-2.6-2.6-2.5-.8-8.9-.7-11.6-.4-2.7.3-4.5.7-5.1,3.6-.4,1.9-.4,8.3.3,10,.7,1.7,2.3,2.3,4,2.5,2.7.3,8.2.3,10.9,0,2.1-.2,4-1.7,4.2-3.9.2-1.7.2-7.8-.1-9.2ZM1134.8,598.9c-.1.9-1,2-1.8,2.2-1.2.4-8.9.3-10.4.1-1.4-.1-2.7-.8-2.9-2.4-.2-1.4-.2-6.3,0-7.8.2-1.4,1.5-2.1,2.7-2.3,1.9-.3,7.3-.3,9.3,0,1.1.1,2.8.7,3.1,1.9.3,1,.3,7,.1,8.3Z"/>
    <path class="st9" d="M543,591.4c-.2-2.1-.8-3.3-2.9-4-2.6-.9-10.9-.8-13.7,0-1.9.5-2.8,1.8-3.1,3.8-.2,1.8-.2,6,0,7.8.3,2.6,2,4,4.5,4.2,2.7.3,7.9.2,10.6,0,.8,0,2.6-.5,3.2-1,.4-.3,1.2-2.1,1.3-2.6.3-1.8.2-6.2,0-8.1ZM540.8,598.9c-.2,1.5-1.5,2.3-2.9,2.4-1.8.1-9.2.3-10.5-.2-.8-.3-1.7-1.3-1.8-2.2-.2-1.5-.2-6.3,0-7.8.2-1.4,1.5-2.1,2.7-2.3,1.9-.3,7.3-.3,9.3,0,1.1.1,2.8.7,3.1,1.9.3,1,.3,7,.1,8.3Z"/>
    <path class="st9" d="M406.3,591.2c-.3-1.9-1.2-3.3-3.1-3.8-2.7-.7-8.5-.7-11.3-.4-2.3.2-4.5.7-5.1,3.3-.4,1.8-.3,7-.1,8.9.3,2.8,2.2,3.7,4.8,3.9,2.7.2,7.6.2,10.3,0,2.6-.2,4.2-1.6,4.5-4.2.2-1.8.2-6,0-7.8ZM403.9,599.6c-.4,1-1.3,1.6-2.3,1.7-1.8.2-9.2.3-10.8-.2-1.2-.3-1.7-1-1.9-2.2-.2-1.6-.2-6.6,0-8.1.2-1,1.7-1.8,2.7-2,1.9-.3,7.3-.3,9.3,0,2.3.2,3.1,1,3.3,3.3.1,1.5.2,6.3-.3,7.5Z"/>
    <path class="st9" d="M449.3,596.3v-.6c2.5,0,2.2-5.5,1.4-6.8-.5-.8-1.9-1.5-2.8-1.6h-14.2v15.9c.8,0,1.5,0,2.2,0v-6.2h11.7c.5,0,1.4,1.3,1.4,1.7v4.5h1.9v-5.4c0-.3-1-1.5-1.6-1.4ZM448.2,594.4c-.2.1-1.4.6-1.6.6h-10.7v-5.9h11.7c1.5,0,2.1,4.3.6,5.3Z"/>
    <path class="st9" d="M730.9,588.8c-.4-.7-2.1-1.6-2.8-1.6h-13.9v15.9h1.9v-6.2h11.7c.3,0,2.3-.8,2.7-1.1,1.3-1.1,1.2-5.6.4-7ZM727.5,595h-11.4v-5.9h11.7c.2,0,1.2.8,1.3,1.1.4,1.3.3,4.8-1.7,4.8Z"/>
    <path class="st9" d="M820,602.1c-2.1-4.1-5.3-9.6-7.8-13.4-1.2-1.7-1.3-1.7-3.6-1.4l-8.8,15.3c-.2.8,1.9.5,2.2.3.7-.4,1-3.2,2.3-3.3,3.6.3,7.7-.4,11.2,0,2.2.2,1.7,4.3,4.8,3.4.1-.5-.2-.7-.4-1ZM805.1,597.8l4.7-8.7.9.8,4.4,7.9h-10Z"/>
  </g>
  <g>
    <path class="st5" d="M928.9,340.4c-18.5,1.6-29.2,21.4-21.2,38,9.2,18.9,37.5,19.3,47,.5,9.5-18.8-4.8-40.4-25.9-38.5ZM933.8,388.4c-29.8,2.7-32.9-41.1-4.6-43.7,29.4-2.7,32.5,41.2,4.6,43.7Z"/>
    <path class="st5" d="M935.8,367.6c2.3-1.6,4.9-3.2,5.3-6.4,1.2-10.6-10.8-10-18.1-8.8v29.2h3.7v-12.7h5.4c.1,0,2,1.1,2.2,1.2.5.4.9,1.4,1.1,2,.9,2.1,1.6,8,2.6,9.2.6.7,3,.2,3.9.3-1.8-4.5-1.3-11.8-6.2-14ZM932.9,365.7h-6.1v-10.6c5-1.4,12.7.5,10.1,7.1-.5,1.4-2.6,3.4-4,3.4Z"/>
  </g>
  <g>
    <path class="st0" d="M394.8,566.9h-8.3v-42.9h-22.7v-6.7h53.8v6.7h-22.8v42.9Z"/>
    <path class="st0" d="M431.6,517.2h47.8v6.6h-39.5v13.9h24.2v6.5h-24.2v15.8h39.9v6.8h-48.2v-49.7Z"/>
    <path class="st0" d="M507.1,524v36h34.4v-12.4l8.3,1.7v5.9c0,9.2-2.6,11.7-11.5,11.7h-27.8c-8.9,0-11.6-2.6-11.6-11.7v-26.2c0-9.1,2.7-11.7,11.6-11.7h27.8c8.9,0,11.5,2.5,11.5,11.7v4.7l-8.3,1.5v-11.3h-34.4Z"/>
    <path class="st0" d="M571.7,517.2h8.3v20.3h39.2v-20.3h8.3v49.7h-8.3v-22.5h-39.2v22.5h-8.3v-49.7Z"/>
    <path class="st0" d="M653.2,517.2h5.2l37.1,33.2c1.7,1.5,3.7,3.7,5.7,6.3-.8-4.6-.8-8.7-.8-12.2v-27.2h7.6v49.7h-4.6l-38.2-34.5c-1.4-1.3-3.4-2.8-5-5.6.5,3.7.6,7.2.6,10.9v29.3h-7.6v-49.7Z"/>
    <path class="st0" d="M744.8,517.2h34.4c8.9,0,11.5,2.6,11.5,11.7v26.2c0,9.1-2.6,11.7-11.5,11.7h-34.4c-8.9,0-11.6-2.5-11.6-11.7v-26.2c0-9.2,2.8-11.7,11.6-11.7ZM782.5,560v-36h-41.1v36h41.1Z"/>
    <path class="st0" d="M815.9,517.2h8.3v42.7h37.6v6.9h-45.9v-49.7Z"/>
    <path class="st0" d="M887.9,517.2h34.4c8.9,0,11.5,2.6,11.5,11.7v26.2c0,9.1-2.6,11.7-11.5,11.7h-34.4c-8.9,0-11.6-2.5-11.6-11.7v-26.2c0-9.2,2.8-11.7,11.6-11.7ZM925.6,560v-36h-41.1v36h41.1Z"/>
    <path class="st0" d="M966.6,524v36h38.9v-14.5h-20.1v-6.4h28.4v16.1c0,9.1-2.7,11.7-11.6,11.7h-32.1c-8.9,0-11.6-2.5-11.6-11.7v-26.2c0-9.2,2.8-11.7,11.6-11.7h32.1c8.6,0,11.6,2.4,11.6,11.2v1.3l-8.3,1.6v-7.3h-38.9Z"/>
    <path class="st0" d="M1037.6,517.2h8.3v49.7h-8.3v-49.7Z"/>
    <path class="st0" d="M1071.6,517.2h47.8v6.6h-39.5v13.9h24.2v6.5h-24.2v15.8h39.9v6.8h-48.2v-49.7Z"/>
    <path class="st0" d="M1146.8,524v13.9h31.3c9,0,11.5,2.8,11.5,11.7v5.6c0,9.1-2.6,11.7-11.5,11.7h-29c-8.9,0-11.6-2.6-11.6-11.7v-1.3l7.7-1.8v8h36.9v-14.9h-31.2c-8.9,0-11.5-2.5-11.5-11.7v-4.3c0-9.2,2.7-11.7,11.5-11.7h26.5c8.3,0,11.6,2.3,11.6,10.9v1.1l-7.1,2v-7.2h-35.1Z"/>
  </g>
  <g>
    <path class="st4" d="M256.1,608c-126.7-21.7-228.2-127.4-246.5-254.6C-20,148.4,158-26.9,362.6,7.6c86.2,14.5,166.8,68.9,210.4,144.7l-50.9,9.7c-42-58.5-108.6-100.3-181-108.1C165.8,34.9,24.6,190.8,61.3,363.6c20.4,96,98.8,174.4,194.8,194.9v49.5Z"/>
    <path class="st6" d="M146.7,438.7c-2,1.4-8.9-9.2-10.1-11-76-109.5-28.7-264.7,93.8-314.6,152.3-62.1,312.8,62.4,290.9,224.9-.4,2.6-3,19.1-4.5,19.2l-43.4-29.9c.7-13.3,1-26.4-.6-39.6-13.1-106.2-125.7-170.4-224.6-128.8-93.2,39.2-126.7,152.3-73.8,238l-27.7,42Z"/>
    <path class="st10" d="M428.5,288h-51.6c-18.6-50.6-87.9-59.2-119.6-15.8-20.8,28.5-16.7,69.5,10.1,92.7,2.7,2.3,13.8,8.8,14.3,10.5.4,17,.6,34-1.4,50.9-83.3-23.6-114-128.4-54.7-193.1,65.2-71.1,182.5-38.1,202.9,54.7Z"/>
    <path class="st3" d="M336.6,373.7v172.9c-1.5,15.3-4.7,30.9-15,42.8-14.5,16.9-41.5,20.7-62.5,17.5v-47.5h22.2c3.5,0,9.8-7.7,9.8-10.8v-175h45.4Z"/>
    <path class="st8" d="M451.2,396.4c-10.3-3.9-19.3-6.2-30.5-5.2-36.7,3.2-42.1,64-22.7,87.8,13.8,17,39.9,16.8,53.7,0l9.6,12.9c-17.8,19.3-53.8,20.6-73.1,3.1-30.4-27.6-25.7-97.5,13.7-115.3,14.9-6.7,40.2-5.6,54.2,2.7l-4.9,14Z"/>
    <path class="st8" d="M736.1,397.5c-13.1-10-43.6-12-43.2,10.7.4,26.7,44.3,21.9,52.8,50.4,11.8,39-29.7,57.8-61.5,45-2-.8-8-2.9-7.8-5.2s5.7-15.1,6.5-15.2c16.1,13.5,51,11.8,46.7-15.8s-44.4-19.9-52.1-46c-5.4-18.2,1.3-37.9,20.4-44.1,7.8-2.5,38.3-2.9,42.9,4.6s-4.3,12.6-4.7,15.5Z"/>
    <path class="st3" d="M307.5,285.2c38.8-4.7,45.5,54.4,8.9,59.5-41.5,5.8-47.9-54.8-8.9-59.5Z"/>
    <path class="st8" d="M815.6,377.8v127h17.5v-48.5c22.5,2,51.7-.3,59.1-26.1,15.2-53-38.6-57-76.7-52.4ZM865.7,436.7c-2.1,1.2-9.4,4.1-11.4,4.1h-21.2v-47.5c14.8-3.1,40.7-.6,43.3,18.2,1.4,10.1-1.5,20-10.7,25.2Z"/>
    <path class="st8" d="M573.1,376.4l-3.7-.7-53.2,129.1h19.1l10-26.7c15.7,0,32-.9,47.5.5l8.1,26.2h19.6l-47.4-128.4ZM550.3,465.6l19.1-55.8,18.1,55.8h-37.2Z"/>
  </g>
</svg>